<?xml version="1.0" encoding="UTF-8" standalone="no"?>
<!DOCTYPE svg PUBLIC "-//W3C//DTD SVG 1.1//EN"
 "http://www.w3.org/Graphics/SVG/1.1/DTD/svg11.dtd">
<!-- Generated by graphviz version 2.36.0 (20140111.2315)
 -->
<!-- Title: G Pages: 1 -->
<svg width="993pt" height="3148pt"
 viewBox="0.00 0.00 993.00 3148.00" xmlns="http://www.w3.org/2000/svg" xmlns:xlink="http://www.w3.org/1999/xlink">
<g id="graph0" class="graph" transform="scale(1 1) rotate(0) translate(4 3144)">
<title>G</title>
<polygon fill="white" stroke="none" points="-4,4 -4,-3144 989,-3144 989,4 -4,4"/>
<!-- n1 -->
<g id="node1" class="node"><title>n1</title>
<g id="a_node1"><a xlink:title="[./models/cpm.lua]:44_">
<ellipse fill="none" stroke="black" cx="405" cy="-1310" rx="216.062" ry="37.4533"/>
<text text-anchor="middle" x="405" y="-1321.3" font-family="Times,serif" font-size="14.00">Node1</text>
<text text-anchor="start" x="260" y="-1306.3" font-family="Times,serif" font-size="14.00">module = cudnn.SpatialConvolution(512 &#45;&gt; 28, 1x1)</text>
<text text-anchor="middle" x="405" y="-1291.3" font-family="Times,serif" font-size="14.00">reverseMap = {}</text>
</a>
</g>
</g>
<!-- n2 -->
<g id="node2" class="node"><title>n2</title>
<g id="a_node2"><a xlink:title="[[C]]:&#45;1_">
<ellipse fill="none" stroke="black" cx="528" cy="-48" rx="124.176" ry="48.1667"/>
<text text-anchor="middle" x="528" y="-66.8" font-family="Times,serif" font-size="14.00">Node2</text>
<text text-anchor="start" x="448" y="-51.8" font-family="Times,serif" font-size="14.00">input = {}</text>
<text text-anchor="start" x="448" y="-36.8" font-family="Times,serif" font-size="14.00">mapindex = {Node1,Node3}</text>
<text text-anchor="middle" x="528" y="-21.8" font-family="Times,serif" font-size="14.00">reverseMap = {}</text>
</a>
</g>
</g>
<!-- n1&#45;&gt;n2 -->
<g id="edge1" class="edge"><title>n1&#45;&gt;n2</title>
<path fill="none" stroke="black" d="M405,-1272.51C405,-1225.14 405,-1139.89 405,-1067 405,-1067 405,-1067 405,-281 405,-214.06 394.044,-190.266 427,-132 434.516,-118.712 445.055,-106.676 456.51,-96.1526"/>
<polygon fill="black" stroke="black" points="458.935,-98.6814 464.148,-89.4574 454.321,-93.4176 458.935,-98.6814"/>
</g>
<!-- n21 -->
<g id="node21" class="node"><title>n21</title>
<g id="a_node21"><a xlink:title="[./models/cpm.lua]:59_">
<ellipse fill="none" stroke="black" cx="689" cy="-1188" rx="128.54" ry="48.1667"/>
<text text-anchor="middle" x="689" y="-1206.8" font-family="Times,serif" font-size="14.00">Node21</text>
<text text-anchor="start" x="606" y="-1191.8" font-family="Times,serif" font-size="14.00">module = nn.JoinTable</text>
<text text-anchor="start" x="606" y="-1176.8" font-family="Times,serif" font-size="14.00">reverseMap = {}</text>
<text text-anchor="middle" x="689" y="-1161.8" font-family="Times,serif" font-size="14.00">mapindex = {Node1,Node23}</text>
</a>
</g>
</g>
<!-- n1&#45;&gt;n21 -->
<g id="edge22" class="edge"><title>n1&#45;&gt;n21</title>
<path fill="none" stroke="black" d="M485.244,-1275.09C519.575,-1260.59 559.886,-1243.56 595.552,-1228.49"/>
<polygon fill="black" stroke="black" points="597.145,-1231.61 604.994,-1224.5 594.421,-1225.16 597.145,-1231.61"/>
</g>
<!-- n3 -->
<g id="node3" class="node"><title>n3</title>
<g id="a_node3"><a xlink:title="[./models/cpm.lua]:69_">
<ellipse fill="none" stroke="black" cx="652" cy="-170" rx="216.062" ry="37.4533"/>
<text text-anchor="middle" x="652" y="-181.3" font-family="Times,serif" font-size="14.00">Node3</text>
<text text-anchor="start" x="507" y="-166.3" font-family="Times,serif" font-size="14.00">module = cudnn.SpatialConvolution(128 &#45;&gt; 28, 1x1)</text>
<text text-anchor="middle" x="652" y="-151.3" font-family="Times,serif" font-size="14.00">reverseMap = {}</text>
</a>
</g>
</g>
<!-- n3&#45;&gt;n2 -->
<g id="edge2" class="edge"><title>n3&#45;&gt;n2</title>
<path fill="none" stroke="black" d="M614.796,-132.996C604.145,-122.689 592.326,-111.251 580.925,-100.218"/>
<polygon fill="black" stroke="black" points="583.13,-97.4812 573.51,-93.042 578.262,-102.511 583.13,-97.4812"/>
</g>
<!-- n4 -->
<g id="node4" class="node"><title>n4</title>
<g id="a_node4"><a xlink:title="[./models/cpm.lua]:43_">
<ellipse fill="none" stroke="black" cx="394" cy="-1422" rx="101.174" ry="37.4533"/>
<text text-anchor="middle" x="394" y="-1433.3" font-family="Times,serif" font-size="14.00">Node4</text>
<text text-anchor="start" x="330.5" y="-1418.3" font-family="Times,serif" font-size="14.00">module = cudnn.ReLU</text>
<text text-anchor="middle" x="394" y="-1403.3" font-family="Times,serif" font-size="14.00">reverseMap = {}</text>
</a>
</g>
</g>
<!-- n4&#45;&gt;n1 -->
<g id="edge3" class="edge"><title>n4&#45;&gt;n1</title>
<path fill="none" stroke="black" d="M397.663,-1384.37C398.507,-1375.93 399.417,-1366.83 400.299,-1358.01"/>
<polygon fill="black" stroke="black" points="403.803,-1358.14 401.316,-1347.84 396.838,-1357.45 403.803,-1358.14"/>
</g>
<!-- n5 -->
<g id="node5" class="node"><title>n5</title>
<g id="a_node5"><a xlink:title="[./models/cpm.lua]:68_">
<ellipse fill="none" stroke="black" cx="659" cy="-282" rx="101.174" ry="37.4533"/>
<text text-anchor="middle" x="659" y="-293.3" font-family="Times,serif" font-size="14.00">Node5</text>
<text text-anchor="start" x="595.5" y="-278.3" font-family="Times,serif" font-size="14.00">module = cudnn.ReLU</text>
<text text-anchor="middle" x="659" y="-263.3" font-family="Times,serif" font-size="14.00">reverseMap = {}</text>
</a>
</g>
</g>
<!-- n5&#45;&gt;n3 -->
<g id="edge4" class="edge"><title>n5&#45;&gt;n3</title>
<path fill="none" stroke="black" d="M656.669,-244.372C656.132,-235.927 655.553,-226.829 654.992,-218.011"/>
<polygon fill="black" stroke="black" points="658.473,-217.601 654.345,-207.844 651.487,-218.046 658.473,-217.601"/>
</g>
<!-- n6 -->
<g id="node6" class="node"><title>n6</title>
<g id="a_node6"><a xlink:title="[./models/cpm.lua]:42_">
<ellipse fill="none" stroke="black" cx="389" cy="-1534" rx="220.987" ry="37.4533"/>
<text text-anchor="middle" x="389" y="-1545.3" font-family="Times,serif" font-size="14.00">Node6</text>
<text text-anchor="start" x="240.5" y="-1530.3" font-family="Times,serif" font-size="14.00">module = cudnn.SpatialConvolution(512 &#45;&gt; 512, 1x1)</text>
<text text-anchor="middle" x="389" y="-1515.3" font-family="Times,serif" font-size="14.00">reverseMap = {}</text>
</a>
</g>
</g>
<!-- n6&#45;&gt;n4 -->
<g id="edge5" class="edge"><title>n6&#45;&gt;n4</title>
<path fill="none" stroke="black" d="M390.665,-1496.37C391.049,-1487.93 391.462,-1478.83 391.863,-1470.01"/>
<polygon fill="black" stroke="black" points="395.368,-1469.99 392.325,-1459.84 388.375,-1469.67 395.368,-1469.99"/>
</g>
<!-- n7 -->
<g id="node7" class="node"><title>n7</title>
<g id="a_node7"><a xlink:title="[./models/cpm.lua]:67_">
<ellipse fill="none" stroke="black" cx="663" cy="-394" rx="220.987" ry="37.4533"/>
<text text-anchor="middle" x="663" y="-405.3" font-family="Times,serif" font-size="14.00">Node7</text>
<text text-anchor="start" x="514.5" y="-390.3" font-family="Times,serif" font-size="14.00">module = cudnn.SpatialConvolution(128 &#45;&gt; 128, 1x1)</text>
<text text-anchor="middle" x="663" y="-375.3" font-family="Times,serif" font-size="14.00">reverseMap = {}</text>
</a>
</g>
</g>
<!-- n7&#45;&gt;n5 -->
<g id="edge6" class="edge"><title>n7&#45;&gt;n5</title>
<path fill="none" stroke="black" d="M661.668,-356.372C661.361,-347.927 661.03,-338.829 660.709,-330.011"/>
<polygon fill="black" stroke="black" points="664.201,-329.71 660.34,-319.844 657.206,-329.964 664.201,-329.71"/>
</g>
<!-- n8 -->
<g id="node8" class="node"><title>n8</title>
<g id="a_node8"><a xlink:title="[./models/cpm.lua]:41_">
<ellipse fill="none" stroke="black" cx="367" cy="-1646" rx="101.174" ry="37.4533"/>
<text text-anchor="middle" x="367" y="-1657.3" font-family="Times,serif" font-size="14.00">Node8</text>
<text text-anchor="start" x="303.5" y="-1642.3" font-family="Times,serif" font-size="14.00">module = cudnn.ReLU</text>
<text text-anchor="middle" x="367" y="-1627.3" font-family="Times,serif" font-size="14.00">reverseMap = {}</text>
</a>
</g>
</g>
<!-- n8&#45;&gt;n6 -->
<g id="edge7" class="edge"><title>n8&#45;&gt;n6</title>
<path fill="none" stroke="black" d="M374.326,-1608.37C376.051,-1599.74 377.913,-1590.43 379.712,-1581.44"/>
<polygon fill="black" stroke="black" points="383.177,-1581.96 381.706,-1571.47 376.313,-1580.59 383.177,-1581.96"/>
</g>
<!-- n9 -->
<g id="node9" class="node"><title>n9</title>
<g id="a_node9"><a xlink:title="[./models/cpm.lua]:66_">
<ellipse fill="none" stroke="black" cx="680" cy="-506" rx="101.174" ry="37.4533"/>
<text text-anchor="middle" x="680" y="-517.3" font-family="Times,serif" font-size="14.00">Node9</text>
<text text-anchor="start" x="616.5" y="-502.3" font-family="Times,serif" font-size="14.00">module = cudnn.ReLU</text>
<text text-anchor="middle" x="680" y="-487.3" font-family="Times,serif" font-size="14.00">reverseMap = {}</text>
</a>
</g>
</g>
<!-- n9&#45;&gt;n7 -->
<g id="edge8" class="edge"><title>n9&#45;&gt;n7</title>
<path fill="none" stroke="black" d="M674.339,-468.372C673.006,-459.744 671.567,-450.435 670.177,-441.439"/>
<polygon fill="black" stroke="black" points="673.622,-440.817 668.636,-431.468 666.705,-441.886 673.622,-440.817"/>
</g>
<!-- n10 -->
<g id="node10" class="node"><title>n10</title>
<g id="a_node10"><a xlink:title="[./models/cpm.lua]:40_">
<ellipse fill="none" stroke="black" cx="323" cy="-1758" rx="251.595" ry="37.4533"/>
<text text-anchor="middle" x="323" y="-1769.3" font-family="Times,serif" font-size="14.00">Node10</text>
<text text-anchor="start" x="153" y="-1754.3" font-family="Times,serif" font-size="14.00">module = cudnn.SpatialConvolution(32 &#45;&gt; 512, 5x5, 1,1, 2,2)</text>
<text text-anchor="middle" x="323" y="-1739.3" font-family="Times,serif" font-size="14.00">reverseMap = {}</text>
</a>
</g>
</g>
<!-- n10&#45;&gt;n8 -->
<g id="edge9" class="edge"><title>n10&#45;&gt;n8</title>
<path fill="none" stroke="black" d="M337.651,-1720.37C341.214,-1711.47 345.067,-1701.83 348.772,-1692.57"/>
<polygon fill="black" stroke="black" points="352.098,-1693.68 352.562,-1683.09 345.599,-1691.08 352.098,-1693.68"/>
</g>
<!-- n11 -->
<g id="node11" class="node"><title>n11</title>
<g id="a_node11"><a xlink:title="[./models/cpm.lua]:65_">
<ellipse fill="none" stroke="black" cx="689" cy="-618" rx="255.459" ry="37.4533"/>
<text text-anchor="middle" x="689" y="-629.3" font-family="Times,serif" font-size="14.00">Node11</text>
<text text-anchor="start" x="516" y="-614.3" font-family="Times,serif" font-size="14.00">module = cudnn.SpatialConvolution(128 &#45;&gt; 128, 7x7, 1,1, 3,3)</text>
<text text-anchor="middle" x="689" y="-599.3" font-family="Times,serif" font-size="14.00">reverseMap = {}</text>
</a>
</g>
</g>
<!-- n11&#45;&gt;n9 -->
<g id="edge10" class="edge"><title>n11&#45;&gt;n9</title>
<path fill="none" stroke="black" d="M686.003,-580.372C685.297,-571.744 684.536,-562.435 683.8,-553.439"/>
<polygon fill="black" stroke="black" points="687.288,-553.15 682.984,-543.468 680.311,-553.721 687.288,-553.15"/>
</g>
<!-- n12 -->
<g id="node12" class="node"><title>n12</title>
<g id="a_node12"><a xlink:title="[./models/cpm.lua]:39_">
<ellipse fill="none" stroke="black" cx="321" cy="-1870" rx="101.174" ry="37.4533"/>
<text text-anchor="middle" x="321" y="-1881.3" font-family="Times,serif" font-size="14.00">Node12</text>
<text text-anchor="start" x="257.5" y="-1866.3" font-family="Times,serif" font-size="14.00">module = cudnn.ReLU</text>
<text text-anchor="middle" x="321" y="-1851.3" font-family="Times,serif" font-size="14.00">reverseMap = {}</text>
</a>
</g>
</g>
<!-- n12&#45;&gt;n10 -->
<g id="edge11" class="edge"><title>n12&#45;&gt;n10</title>
<path fill="none" stroke="black" d="M321.666,-1832.37C321.82,-1823.93 321.985,-1814.83 322.145,-1806.01"/>
<polygon fill="black" stroke="black" points="325.648,-1805.91 322.33,-1795.84 318.649,-1805.78 325.648,-1805.91"/>
</g>
<!-- n13 -->
<g id="node13" class="node"><title>n13</title>
<g id="a_node13"><a xlink:title="[./models/cpm.lua]:64_">
<ellipse fill="none" stroke="black" cx="689" cy="-730" rx="101.174" ry="37.4533"/>
<text text-anchor="middle" x="689" y="-741.3" font-family="Times,serif" font-size="14.00">Node13</text>
<text text-anchor="start" x="625.5" y="-726.3" font-family="Times,serif" font-size="14.00">module = cudnn.ReLU</text>
<text text-anchor="middle" x="689" y="-711.3" font-family="Times,serif" font-size="14.00">reverseMap = {}</text>
</a>
</g>
</g>
<!-- n13&#45;&gt;n11 -->
<g id="edge12" class="edge"><title>n13&#45;&gt;n11</title>
<path fill="none" stroke="black" d="M689,-692.372C689,-683.927 689,-674.829 689,-666.011"/>
<polygon fill="black" stroke="black" points="692.5,-665.843 689,-655.844 685.5,-665.844 692.5,-665.843"/>
</g>
<!-- n14 -->
<g id="node14" class="node"><title>n14</title>
<g id="a_node14"><a xlink:title="[./models/cpm.lua]:38_">
<ellipse fill="none" stroke="black" cx="319" cy="-1982" rx="251.595" ry="37.4533"/>
<text text-anchor="middle" x="319" y="-1993.3" font-family="Times,serif" font-size="14.00">Node14</text>
<text text-anchor="start" x="149" y="-1978.3" font-family="Times,serif" font-size="14.00">module = cudnn.SpatialConvolution(128 &#45;&gt; 32, 3x3, 1,1, 1,1)</text>
<text text-anchor="middle" x="319" y="-1963.3" font-family="Times,serif" font-size="14.00">reverseMap = {}</text>
</a>
</g>
</g>
<!-- n14&#45;&gt;n12 -->
<g id="edge13" class="edge"><title>n14&#45;&gt;n12</title>
<path fill="none" stroke="black" d="M319.666,-1944.37C319.82,-1935.93 319.985,-1926.83 320.145,-1918.01"/>
<polygon fill="black" stroke="black" points="323.648,-1917.91 320.33,-1907.84 316.649,-1917.78 323.648,-1917.91"/>
</g>
<!-- n15 -->
<g id="node15" class="node"><title>n15</title>
<g id="a_node15"><a xlink:title="[./models/cpm.lua]:63_">
<ellipse fill="none" stroke="black" cx="689" cy="-842" rx="255.459" ry="37.4533"/>
<text text-anchor="middle" x="689" y="-853.3" font-family="Times,serif" font-size="14.00">Node15</text>
<text text-anchor="start" x="516" y="-838.3" font-family="Times,serif" font-size="14.00">module = cudnn.SpatialConvolution(128 &#45;&gt; 128, 7x7, 1,1, 3,3)</text>
<text text-anchor="middle" x="689" y="-823.3" font-family="Times,serif" font-size="14.00">reverseMap = {}</text>
</a>
</g>
</g>
<!-- n15&#45;&gt;n13 -->
<g id="edge14" class="edge"><title>n15&#45;&gt;n13</title>
<path fill="none" stroke="black" d="M689,-804.372C689,-795.927 689,-786.829 689,-778.011"/>
<polygon fill="black" stroke="black" points="692.5,-777.843 689,-767.844 685.5,-777.844 692.5,-777.843"/>
</g>
<!-- n16 -->
<g id="node16" class="node"><title>n16</title>
<g id="a_node16"><a xlink:title="[./models/cpm.lua]:37_">
<ellipse fill="none" stroke="black" cx="305" cy="-2094" rx="101.174" ry="37.4533"/>
<text text-anchor="middle" x="305" y="-2105.3" font-family="Times,serif" font-size="14.00">Node16</text>
<text text-anchor="start" x="241.5" y="-2090.3" font-family="Times,serif" font-size="14.00">module = cudnn.ReLU</text>
<text text-anchor="middle" x="305" y="-2075.3" font-family="Times,serif" font-size="14.00">reverseMap = {}</text>
</a>
</g>
</g>
<!-- n16&#45;&gt;n14 -->
<g id="edge15" class="edge"><title>n16&#45;&gt;n14</title>
<path fill="none" stroke="black" d="M309.662,-2056.37C310.737,-2047.93 311.895,-2038.83 313.017,-2030.01"/>
<polygon fill="black" stroke="black" points="316.52,-2030.21 314.311,-2019.84 309.576,-2029.32 316.52,-2030.21"/>
</g>
<!-- n17 -->
<g id="node17" class="node"><title>n17</title>
<g id="a_node17"><a xlink:title="[./models/cpm.lua]:62_">
<ellipse fill="none" stroke="black" cx="689" cy="-954" rx="101.174" ry="37.4533"/>
<text text-anchor="middle" x="689" y="-965.3" font-family="Times,serif" font-size="14.00">Node17</text>
<text text-anchor="start" x="625.5" y="-950.3" font-family="Times,serif" font-size="14.00">module = cudnn.ReLU</text>
<text text-anchor="middle" x="689" y="-935.3" font-family="Times,serif" font-size="14.00">reverseMap = {}</text>
</a>
</g>
</g>
<!-- n17&#45;&gt;n15 -->
<g id="edge16" class="edge"><title>n17&#45;&gt;n15</title>
<path fill="none" stroke="black" d="M689,-916.372C689,-907.927 689,-898.829 689,-890.011"/>
<polygon fill="black" stroke="black" points="692.5,-889.843 689,-879.844 685.5,-889.844 692.5,-889.843"/>
</g>
<!-- n18 -->
<g id="node18" class="node"><title>n18</title>
<g id="a_node18"><a xlink:title="[./models/cpm.lua]:36_">
<ellipse fill="none" stroke="black" cx="255" cy="-2206" rx="255.459" ry="37.4533"/>
<text text-anchor="middle" x="255" y="-2217.3" font-family="Times,serif" font-size="14.00">Node18</text>
<text text-anchor="start" x="82" y="-2202.3" font-family="Times,serif" font-size="14.00">module = cudnn.SpatialConvolution(128 &#45;&gt; 128, 5x5, 1,1, 2,2)</text>
<text text-anchor="middle" x="255" y="-2187.3" font-family="Times,serif" font-size="14.00">reverseMap = {}</text>
</a>
</g>
</g>
<!-- n18&#45;&gt;n16 -->
<g id="edge17" class="edge"><title>n18&#45;&gt;n16</title>
<path fill="none" stroke="black" d="M271.649,-2168.37C275.74,-2159.37 280.168,-2149.63 284.42,-2140.28"/>
<polygon fill="black" stroke="black" points="287.642,-2141.65 288.594,-2131.09 281.269,-2138.75 287.642,-2141.65"/>
</g>
<!-- n19 -->
<g id="node19" class="node"><title>n19</title>
<g id="a_node19"><a xlink:title="[./models/cpm.lua]:61_">
<ellipse fill="none" stroke="black" cx="689" cy="-1066" rx="251.595" ry="37.4533"/>
<text text-anchor="middle" x="689" y="-1077.3" font-family="Times,serif" font-size="14.00">Node19</text>
<text text-anchor="start" x="519" y="-1062.3" font-family="Times,serif" font-size="14.00">module = cudnn.SpatialConvolution(60 &#45;&gt; 128, 7x7, 1,1, 3,3)</text>
<text text-anchor="middle" x="689" y="-1047.3" font-family="Times,serif" font-size="14.00">reverseMap = {}</text>
</a>
</g>
</g>
<!-- n19&#45;&gt;n17 -->
<g id="edge18" class="edge"><title>n19&#45;&gt;n17</title>
<path fill="none" stroke="black" d="M689,-1028.37C689,-1019.93 689,-1010.83 689,-1002.01"/>
<polygon fill="black" stroke="black" points="692.5,-1001.84 689,-991.844 685.5,-1001.84 692.5,-1001.84"/>
</g>
<!-- n20 -->
<g id="node20" class="node"><title>n20</title>
<g id="a_node20"><a xlink:title="[./models/cpm.lua]:35_">
<ellipse fill="none" stroke="black" cx="255" cy="-2318" rx="200.228" ry="37.4533"/>
<text text-anchor="middle" x="255" y="-2329.3" font-family="Times,serif" font-size="14.00">Node20</text>
<text text-anchor="start" x="121" y="-2314.3" font-family="Times,serif" font-size="14.00">module = cudnn.SpatialMaxPooling(3,3,2,2,1,1)</text>
<text text-anchor="middle" x="255" y="-2299.3" font-family="Times,serif" font-size="14.00">reverseMap = {}</text>
</a>
</g>
</g>
<!-- n20&#45;&gt;n18 -->
<g id="edge19" class="edge"><title>n20&#45;&gt;n18</title>
<path fill="none" stroke="black" d="M255,-2280.37C255,-2271.93 255,-2262.83 255,-2254.01"/>
<polygon fill="black" stroke="black" points="258.5,-2253.84 255,-2243.84 251.5,-2253.84 258.5,-2253.84"/>
</g>
<!-- n21&#45;&gt;n19 -->
<g id="edge20" class="edge"><title>n21&#45;&gt;n19</title>
<path fill="none" stroke="black" d="M689,-1139.57C689,-1131.1 689,-1122.27 689,-1113.81"/>
<polygon fill="black" stroke="black" points="692.5,-1113.72 689,-1103.72 685.5,-1113.72 692.5,-1113.72"/>
</g>
<!-- n22 -->
<g id="node22" class="node"><title>n22</title>
<g id="a_node22"><a xlink:title="[./models/cpm.lua]:34_">
<ellipse fill="none" stroke="black" cx="255" cy="-2430" rx="101.174" ry="37.4533"/>
<text text-anchor="middle" x="255" y="-2441.3" font-family="Times,serif" font-size="14.00">Node22</text>
<text text-anchor="start" x="191.5" y="-2426.3" font-family="Times,serif" font-size="14.00">module = cudnn.ReLU</text>
<text text-anchor="middle" x="255" y="-2411.3" font-family="Times,serif" font-size="14.00">reverseMap = {}</text>
</a>
</g>
</g>
<!-- n22&#45;&gt;n20 -->
<g id="edge21" class="edge"><title>n22&#45;&gt;n20</title>
<path fill="none" stroke="black" d="M255,-2392.37C255,-2383.93 255,-2374.83 255,-2366.01"/>
<polygon fill="black" stroke="black" points="258.5,-2365.84 255,-2355.84 251.5,-2365.84 258.5,-2365.84"/>
</g>
<!-- n23 -->
<g id="node23" class="node"><title>n23</title>
<g id="a_node23"><a xlink:title="[./models/cpm.lua]:56_">
<ellipse fill="none" stroke="black" cx="695" cy="-1758" rx="101.174" ry="37.4533"/>
<text text-anchor="middle" x="695" y="-1769.3" font-family="Times,serif" font-size="14.00">Node23</text>
<text text-anchor="start" x="631.5" y="-1754.3" font-family="Times,serif" font-size="14.00">module = cudnn.ReLU</text>
<text text-anchor="middle" x="695" y="-1739.3" font-family="Times,serif" font-size="14.00">reverseMap = {}</text>
</a>
</g>
</g>
<!-- n23&#45;&gt;n21 -->
<g id="edge23" class="edge"><title>n23&#45;&gt;n21</title>
<path fill="none" stroke="black" d="M694.204,-1720.47C693.315,-1676.47 692,-1600.33 692,-1535 692,-1535 692,-1535 692,-1421 692,-1361.46 691,-1293.32 690.154,-1246.37"/>
<polygon fill="black" stroke="black" points="693.649,-1246.03 689.966,-1236.1 686.65,-1246.16 693.649,-1246.03"/>
</g>
<!-- n24 -->
<g id="node24" class="node"><title>n24</title>
<g id="a_node24"><a xlink:title="[./models/cpm.lua]:33_">
<ellipse fill="none" stroke="black" cx="255" cy="-2542" rx="255.459" ry="37.4533"/>
<text text-anchor="middle" x="255" y="-2553.3" font-family="Times,serif" font-size="14.00">Node24</text>
<text text-anchor="start" x="82" y="-2538.3" font-family="Times,serif" font-size="14.00">module = cudnn.SpatialConvolution(128 &#45;&gt; 128, 5x5, 1,1, 2,2)</text>
<text text-anchor="middle" x="255" y="-2523.3" font-family="Times,serif" font-size="14.00">reverseMap = {}</text>
</a>
</g>
</g>
<!-- n24&#45;&gt;n22 -->
<g id="edge24" class="edge"><title>n24&#45;&gt;n22</title>
<path fill="none" stroke="black" d="M255,-2504.37C255,-2495.93 255,-2486.83 255,-2478.01"/>
<polygon fill="black" stroke="black" points="258.5,-2477.84 255,-2467.84 251.5,-2477.84 258.5,-2477.84"/>
</g>
<!-- n25 -->
<g id="node25" class="node"><title>n25</title>
<g id="a_node25"><a xlink:title="[./models/cpm.lua]:55_">
<ellipse fill="none" stroke="black" cx="696" cy="-1870" rx="251.595" ry="37.4533"/>
<text text-anchor="middle" x="696" y="-1881.3" font-family="Times,serif" font-size="14.00">Node25</text>
<text text-anchor="start" x="526" y="-1866.3" font-family="Times,serif" font-size="14.00">module = cudnn.SpatialConvolution(128 &#45;&gt; 32, 3x3, 1,1, 1,1)</text>
<text text-anchor="middle" x="696" y="-1851.3" font-family="Times,serif" font-size="14.00">reverseMap = {}</text>
</a>
</g>
</g>
<!-- n25&#45;&gt;n23 -->
<g id="edge25" class="edge"><title>n25&#45;&gt;n23</title>
<path fill="none" stroke="black" d="M695.667,-1832.37C695.59,-1823.93 695.508,-1814.83 695.427,-1806.01"/>
<polygon fill="black" stroke="black" points="698.926,-1805.81 695.335,-1795.84 691.926,-1805.87 698.926,-1805.81"/>
</g>
<!-- n26 -->
<g id="node26" class="node"><title>n26</title>
<g id="a_node26"><a xlink:title="[./models/cpm.lua]:32_">
<ellipse fill="none" stroke="black" cx="262" cy="-2654" rx="200.228" ry="37.4533"/>
<text text-anchor="middle" x="262" y="-2665.3" font-family="Times,serif" font-size="14.00">Node26</text>
<text text-anchor="start" x="128" y="-2650.3" font-family="Times,serif" font-size="14.00">module = cudnn.SpatialMaxPooling(3,3,2,2,1,1)</text>
<text text-anchor="middle" x="262" y="-2635.3" font-family="Times,serif" font-size="14.00">reverseMap = {}</text>
</a>
</g>
</g>
<!-- n26&#45;&gt;n24 -->
<g id="edge26" class="edge"><title>n26&#45;&gt;n24</title>
<path fill="none" stroke="black" d="M259.669,-2616.37C259.132,-2607.93 258.553,-2598.83 257.992,-2590.01"/>
<polygon fill="black" stroke="black" points="261.473,-2589.6 257.345,-2579.84 254.487,-2590.05 261.473,-2589.6"/>
</g>
<!-- n27 -->
<g id="node27" class="node"><title>n27</title>
<g id="a_node27"><a xlink:title="[./models/cpm.lua]:54_">
<ellipse fill="none" stroke="black" cx="703" cy="-1982" rx="101.174" ry="37.4533"/>
<text text-anchor="middle" x="703" y="-1993.3" font-family="Times,serif" font-size="14.00">Node27</text>
<text text-anchor="start" x="639.5" y="-1978.3" font-family="Times,serif" font-size="14.00">module = cudnn.ReLU</text>
<text text-anchor="middle" x="703" y="-1963.3" font-family="Times,serif" font-size="14.00">reverseMap = {}</text>
</a>
</g>
</g>
<!-- n27&#45;&gt;n25 -->
<g id="edge27" class="edge"><title>n27&#45;&gt;n25</title>
<path fill="none" stroke="black" d="M700.669,-1944.37C700.132,-1935.93 699.553,-1926.83 698.992,-1918.01"/>
<polygon fill="black" stroke="black" points="702.473,-1917.6 698.345,-1907.84 695.487,-1918.05 702.473,-1917.6"/>
</g>
<!-- n28 -->
<g id="node28" class="node"><title>n28</title>
<g id="a_node28"><a xlink:title="[./models/cpm.lua]:31_">
<ellipse fill="none" stroke="black" cx="289" cy="-2766" rx="101.174" ry="37.4533"/>
<text text-anchor="middle" x="289" y="-2777.3" font-family="Times,serif" font-size="14.00">Node28</text>
<text text-anchor="start" x="225.5" y="-2762.3" font-family="Times,serif" font-size="14.00">module = cudnn.ReLU</text>
<text text-anchor="middle" x="289" y="-2747.3" font-family="Times,serif" font-size="14.00">reverseMap = {}</text>
</a>
</g>
</g>
<!-- n28&#45;&gt;n26 -->
<g id="edge28" class="edge"><title>n28&#45;&gt;n26</title>
<path fill="none" stroke="black" d="M280.009,-2728.37C277.892,-2719.74 275.607,-2710.43 273.399,-2701.44"/>
<polygon fill="black" stroke="black" points="276.734,-2700.35 270.951,-2691.47 269.936,-2702.01 276.734,-2700.35"/>
</g>
<!-- n29 -->
<g id="node29" class="node"><title>n29</title>
<g id="a_node29"><a xlink:title="[./models/cpm.lua]:53_">
<ellipse fill="none" stroke="black" cx="705" cy="-2094" rx="255.459" ry="37.4533"/>
<text text-anchor="middle" x="705" y="-2105.3" font-family="Times,serif" font-size="14.00">Node29</text>
<text text-anchor="start" x="532" y="-2090.3" font-family="Times,serif" font-size="14.00">module = cudnn.SpatialConvolution(128 &#45;&gt; 128, 5x5, 1,1, 2,2)</text>
<text text-anchor="middle" x="705" y="-2075.3" font-family="Times,serif" font-size="14.00">reverseMap = {}</text>
</a>
</g>
</g>
<!-- n29&#45;&gt;n27 -->
<g id="edge29" class="edge"><title>n29&#45;&gt;n27</title>
<path fill="none" stroke="black" d="M704.334,-2056.37C704.18,-2047.93 704.015,-2038.83 703.855,-2030.01"/>
<polygon fill="black" stroke="black" points="707.351,-2029.78 703.67,-2019.84 700.352,-2029.91 707.351,-2029.78"/>
</g>
<!-- n30 -->
<g id="node30" class="node"><title>n30</title>
<g id="a_node30"><a xlink:title="[./models/cpm.lua]:30_">
<ellipse fill="none" stroke="black" cx="312" cy="-2878" rx="246.171" ry="37.4533"/>
<text text-anchor="middle" x="312" y="-2889.3" font-family="Times,serif" font-size="14.00">Node30</text>
<text text-anchor="start" x="145.5" y="-2874.3" font-family="Times,serif" font-size="14.00">module = cudnn.SpatialConvolution(3 &#45;&gt; 128, 5x5, 1,1, 2,2)</text>
<text text-anchor="middle" x="312" y="-2859.3" font-family="Times,serif" font-size="14.00">reverseMap = {}</text>
</a>
</g>
</g>
<!-- n30&#45;&gt;n28 -->
<g id="edge30" class="edge"><title>n30&#45;&gt;n28</title>
<path fill="none" stroke="black" d="M304.341,-2840.37C302.537,-2831.74 300.591,-2822.43 298.71,-2813.44"/>
<polygon fill="black" stroke="black" points="302.098,-2812.54 296.625,-2803.47 295.246,-2813.97 302.098,-2812.54"/>
</g>
<!-- n31 -->
<g id="node31" class="node"><title>n31</title>
<g id="a_node31"><a xlink:title="[./models/cpm.lua]:52_">
<ellipse fill="none" stroke="black" cx="730" cy="-2206" rx="200.228" ry="37.4533"/>
<text text-anchor="middle" x="730" y="-2217.3" font-family="Times,serif" font-size="14.00">Node31</text>
<text text-anchor="start" x="596" y="-2202.3" font-family="Times,serif" font-size="14.00">module = cudnn.SpatialMaxPooling(3,3,2,2,1,1)</text>
<text text-anchor="middle" x="730" y="-2187.3" font-family="Times,serif" font-size="14.00">reverseMap = {}</text>
</a>
</g>
</g>
<!-- n31&#45;&gt;n29 -->
<g id="edge31" class="edge"><title>n31&#45;&gt;n29</title>
<path fill="none" stroke="black" d="M721.675,-2168.37C719.715,-2159.74 717.599,-2150.43 715.554,-2141.44"/>
<polygon fill="black" stroke="black" points="718.918,-2140.44 713.288,-2131.47 712.092,-2142 718.918,-2140.44"/>
</g>
<!-- n32 -->
<g id="node32" class="node"><title>n32</title>
<g id="a_node32"><a xlink:title="[./models/cpm.lua]:27_">
<ellipse fill="none" stroke="black" cx="449" cy="-2990" rx="94.0678" ry="37.4533"/>
<text text-anchor="middle" x="449" y="-3001.3" font-family="Times,serif" font-size="14.00">Node32</text>
<text text-anchor="start" x="390.5" y="-2986.3" font-family="Times,serif" font-size="14.00">module = nn.Identity</text>
<text text-anchor="middle" x="449" y="-2971.3" font-family="Times,serif" font-size="14.00">reverseMap = {}</text>
</a>
</g>
</g>
<!-- n32&#45;&gt;n30 -->
<g id="edge32" class="edge"><title>n32&#45;&gt;n30</title>
<path fill="none" stroke="black" d="M407.895,-2956C394.329,-2945.1 379.046,-2932.83 364.735,-2921.34"/>
<polygon fill="black" stroke="black" points="366.889,-2918.58 356.9,-2915.05 362.507,-2924.04 366.889,-2918.58"/>
</g>
<!-- n38 -->
<g id="node38" class="node"><title>n38</title>
<g id="a_node38"><a xlink:title="[./models/cpm.lua]:47_">
<ellipse fill="none" stroke="black" cx="709" cy="-2766" rx="246.171" ry="37.4533"/>
<text text-anchor="middle" x="709" y="-2777.3" font-family="Times,serif" font-size="14.00">Node38</text>
<text text-anchor="start" x="542.5" y="-2762.3" font-family="Times,serif" font-size="14.00">module = cudnn.SpatialConvolution(3 &#45;&gt; 128, 5x5, 1,1, 2,2)</text>
<text text-anchor="middle" x="709" y="-2747.3" font-family="Times,serif" font-size="14.00">reverseMap = {}</text>
</a>
</g>
</g>
<!-- n32&#45;&gt;n38 -->
<g id="edge39" class="edge"><title>n32&#45;&gt;n38</title>
<path fill="none" stroke="black" d="M503.528,-2959.23C524.202,-2946.94 547.453,-2931.86 567,-2916 606.136,-2884.24 645.253,-2842.25 672.491,-2810.94"/>
<polygon fill="black" stroke="black" points="675.268,-2813.08 679.153,-2803.22 669.969,-2808.5 675.268,-2813.08"/>
</g>
<!-- n33 -->
<g id="node33" class="node"><title>n33</title>
<g id="a_node33"><a xlink:title="[./models/cpm.lua]:51_">
<ellipse fill="none" stroke="black" cx="730" cy="-2318" rx="101.174" ry="37.4533"/>
<text text-anchor="middle" x="730" y="-2329.3" font-family="Times,serif" font-size="14.00">Node33</text>
<text text-anchor="start" x="666.5" y="-2314.3" font-family="Times,serif" font-size="14.00">module = cudnn.ReLU</text>
<text text-anchor="middle" x="730" y="-2299.3" font-family="Times,serif" font-size="14.00">reverseMap = {}</text>
</a>
</g>
</g>
<!-- n33&#45;&gt;n31 -->
<g id="edge33" class="edge"><title>n33&#45;&gt;n31</title>
<path fill="none" stroke="black" d="M730,-2280.37C730,-2271.93 730,-2262.83 730,-2254.01"/>
<polygon fill="black" stroke="black" points="733.5,-2253.84 730,-2243.84 726.5,-2253.84 733.5,-2253.84"/>
</g>
<!-- n34 -->
<g id="node34" class="node"><title>n34</title>
<g id="a_node34"><a xlink:title="[[C]]:&#45;1_">
<ellipse fill="none" stroke="black" cx="449" cy="-3102" rx="77.1743" ry="37.4533"/>
<text text-anchor="middle" x="449" y="-3113.3" font-family="Times,serif" font-size="14.00">Node34</text>
<text text-anchor="start" x="402" y="-3098.3" font-family="Times,serif" font-size="14.00">input = {}</text>
<text text-anchor="middle" x="449" y="-3083.3" font-family="Times,serif" font-size="14.00">reverseMap = {}</text>
</a>
</g>
</g>
<!-- n34&#45;&gt;n32 -->
<g id="edge34" class="edge"><title>n34&#45;&gt;n32</title>
<path fill="none" stroke="black" d="M449,-3064.37C449,-3055.93 449,-3046.83 449,-3038.01"/>
<polygon fill="black" stroke="black" points="452.5,-3037.84 449,-3027.84 445.5,-3037.84 452.5,-3037.84"/>
</g>
<!-- n35 -->
<g id="node35" class="node"><title>n35</title>
<g id="a_node35"><a xlink:title="[./models/cpm.lua]:50_">
<ellipse fill="none" stroke="black" cx="730" cy="-2430" rx="255.459" ry="37.4533"/>
<text text-anchor="middle" x="730" y="-2441.3" font-family="Times,serif" font-size="14.00">Node35</text>
<text text-anchor="start" x="557" y="-2426.3" font-family="Times,serif" font-size="14.00">module = cudnn.SpatialConvolution(128 &#45;&gt; 128, 5x5, 1,1, 2,2)</text>
<text text-anchor="middle" x="730" y="-2411.3" font-family="Times,serif" font-size="14.00">reverseMap = {}</text>
</a>
</g>
</g>
<!-- n35&#45;&gt;n33 -->
<g id="edge35" class="edge"><title>n35&#45;&gt;n33</title>
<path fill="none" stroke="black" d="M730,-2392.37C730,-2383.93 730,-2374.83 730,-2366.01"/>
<polygon fill="black" stroke="black" points="733.5,-2365.84 730,-2355.84 726.5,-2365.84 733.5,-2365.84"/>
</g>
<!-- n36 -->
<g id="node36" class="node"><title>n36</title>
<g id="a_node36"><a xlink:title="[./models/cpm.lua]:49_">
<ellipse fill="none" stroke="black" cx="730" cy="-2542" rx="200.228" ry="37.4533"/>
<text text-anchor="middle" x="730" y="-2553.3" font-family="Times,serif" font-size="14.00">Node36</text>
<text text-anchor="start" x="596" y="-2538.3" font-family="Times,serif" font-size="14.00">module = cudnn.SpatialMaxPooling(3,3,2,2,1,1)</text>
<text text-anchor="middle" x="730" y="-2523.3" font-family="Times,serif" font-size="14.00">reverseMap = {}</text>
</a>
</g>
</g>
<!-- n36&#45;&gt;n35 -->
<g id="edge36" class="edge"><title>n36&#45;&gt;n35</title>
<path fill="none" stroke="black" d="M730,-2504.37C730,-2495.93 730,-2486.83 730,-2478.01"/>
<polygon fill="black" stroke="black" points="733.5,-2477.84 730,-2467.84 726.5,-2477.84 733.5,-2477.84"/>
</g>
<!-- n37 -->
<g id="node37" class="node"><title>n37</title>
<g id="a_node37"><a xlink:title="[./models/cpm.lua]:48_">
<ellipse fill="none" stroke="black" cx="723" cy="-2654" rx="101.174" ry="37.4533"/>
<text text-anchor="middle" x="723" y="-2665.3" font-family="Times,serif" font-size="14.00">Node37</text>
<text text-anchor="start" x="659.5" y="-2650.3" font-family="Times,serif" font-size="14.00">module = cudnn.ReLU</text>
<text text-anchor="middle" x="723" y="-2635.3" font-family="Times,serif" font-size="14.00">reverseMap = {}</text>
</a>
</g>
</g>
<!-- n37&#45;&gt;n36 -->
<g id="edge37" class="edge"><title>n37&#45;&gt;n36</title>
<path fill="none" stroke="black" d="M725.331,-2616.37C725.868,-2607.93 726.447,-2598.83 727.008,-2590.01"/>
<polygon fill="black" stroke="black" points="730.513,-2590.05 727.655,-2579.84 723.527,-2589.6 730.513,-2590.05"/>
</g>
<!-- n38&#45;&gt;n37 -->
<g id="edge38" class="edge"><title>n38&#45;&gt;n37</title>
<path fill="none" stroke="black" d="M713.662,-2728.37C714.76,-2719.74 715.945,-2710.43 717.09,-2701.44"/>
<polygon fill="black" stroke="black" points="720.568,-2701.83 718.359,-2691.47 713.624,-2700.95 720.568,-2701.83"/>
</g>
</g>
</svg>
